<svg width="300" height="300" viewBox="0 0 300 300" fill="none" xmlns="http://www.w3.org/2000/svg">
<rect width="300" height="300" fill="#3F514A"/>
<path d="M66.3281 141.734C66.3281 140.141 66.625 138.531 67.2188 136.906C67.8125 135.281 68.7344 133.75 69.9844 132.312C74.5469 134.312 78.5156 135.844 81.8906 136.906C85.2969 137.969 88.7969 138.5 92.3906 138.5C93.0469 138.5 93.7188 138.438 94.4062 138.312C95.125 138.188 95.6875 138.016 96.0938 137.797C96.25 137.453 96.375 137.016 96.4688 136.484C96.5625 135.922 96.6094 135.469 96.6094 135.125C96.6094 133.594 95.875 132.281 94.4062 131.188C92.9375 130.094 91 129 88.5938 127.906L86.9531 127.109C82.2656 124.703 78.5 122.547 75.6562 120.641C72.8438 118.703 70.4531 116.172 68.4844 113.047C66.5469 109.891 65.5781 106.031 65.5781 101.469C65.5781 94.7812 67.4375 89.4219 71.1562 85.3906C74.9062 81.3594 80.8594 79.3438 89.0156 79.3438C95.9844 79.3438 101.5 79.7656 105.562 80.6094C107.25 81.6094 108.719 82.6562 109.969 83.75C111.25 84.8125 112.469 86.1094 113.625 87.6406C113.625 89.8281 113.406 92.2031 112.969 94.7656C112.562 97.2969 111.984 99.625 111.234 101.75C110.516 103.875 109.734 105.406 108.891 106.344C108.172 106.688 107.375 106.953 106.5 107.141C105.625 107.297 104.547 107.375 103.266 107.375C101.922 107.375 100.828 107.281 99.9844 107.094C99.1406 106.906 98.3594 106.594 97.6406 106.156L96.1875 96.4062C94.375 95.9062 92.4531 95.5469 90.4219 95.3281C88.3906 95.0781 87.0156 94.9688 86.2969 95C85.1406 95.5312 84.3438 96.2812 83.9062 97.25C83.5 98.1875 83.2969 99.3125 83.2969 100.625C83.2969 102.031 83.6719 103.25 84.4219 104.281C85.2031 105.281 86.1406 106.109 87.2344 106.766C88.3281 107.422 89.7344 108.156 91.4531 108.969L93.5156 110C97.9844 112.344 101.5 114.391 104.062 116.141C106.625 117.891 108.766 120.109 110.484 122.797C112.234 125.453 113.109 128.672 113.109 132.453C113.109 136.859 111.953 140.656 109.641 143.844C107.328 147 104.359 149.281 100.734 150.688C98.7656 151.469 96.5938 152.031 94.2188 152.375C91.8438 152.719 89.0938 152.891 85.9688 152.891C83.8438 152.891 81.5625 152.625 79.125 152.094C76.6875 151.562 74.3125 150.625 72 149.281C69.7188 147.938 67.8906 146.141 66.5156 143.891C66.3906 143.297 66.3281 142.578 66.3281 141.734ZM133.312 141.406C132.156 137.562 130.469 132.344 128.25 125.75C126.031 119.156 123.844 113.031 121.688 107.375C119.562 101.719 118 98.2031 117 96.8281L112.922 96.5C111.766 93.0312 111.188 90.1094 111.188 87.7344C112.281 85.0156 113.922 82.9531 116.109 81.5469C118.297 80.1094 120.953 79.3906 124.078 79.3906C128.891 79.3906 132.516 81.4844 134.953 85.6719C136.484 88.2969 137.781 91.5938 138.844 95.5625C139.938 99.5 141 104.25 142.031 109.812C144.062 120.406 145.312 129.203 145.781 136.203L146.859 136.016C147.672 134.234 148.703 130.609 149.953 125.141C151.203 119.672 152.281 114.031 153.188 108.219C154.094 102.375 154.547 97.9844 154.547 95.0469L148.359 94.1562C147.922 92.5938 147.609 91.2344 147.422 90.0781C147.234 88.8906 147.125 87.6094 147.094 86.2344C147.094 86.1094 147.094 85.9375 147.094 85.7188C147.125 85.5 147.125 85.2344 147.094 84.9219C147.781 84.1094 148.922 83.2656 150.516 82.3906C152.109 81.5156 153.953 80.7812 156.047 80.1875C158.172 79.5938 160.297 79.2969 162.422 79.2969C166.703 79.2969 169.844 80.3594 171.844 82.4844C173.844 84.5781 174.844 87.7969 174.844 92.1406C174.844 95.1406 174.438 98.7031 173.625 102.828C172.812 106.953 171.672 111.219 170.203 115.625C169.141 118.812 167.547 122.797 165.422 127.578C163.297 132.328 161.016 136.891 158.578 141.266C156.172 145.641 154 148.938 152.062 151.156C151.156 151.75 150.062 152.188 148.781 152.469C147.5 152.781 146.219 152.938 144.938 152.938C143.156 152.938 141.328 152.688 139.453 152.188C137.609 151.719 135.969 151.047 134.531 150.172C133.125 149.297 132.141 148.297 131.578 147.172L133.312 141.406ZM178.969 116.188C178.969 109.062 180 102.75 182.062 97.25C184.125 91.7188 187.375 87.3594 191.812 84.1719C196.281 80.9531 201.953 79.3438 208.828 79.3438C211.266 79.3438 213.906 79.5 216.75 79.8125C219.594 80.0938 222.375 80.5469 225.094 81.1719C226.781 82.1719 228.25 83.2188 229.5 84.3125C230.781 85.375 232 86.6719 233.156 88.2031C233.156 90.4219 232.859 93.3594 232.266 97.0156C231.672 100.672 230.922 104.078 230.016 107.234C229.141 110.391 228.297 112.438 227.484 113.375C226.672 113.781 225.984 114.062 225.422 114.219C224.859 114.344 223.984 114.406 222.797 114.406C221.328 114.406 219.953 114.297 218.672 114.078C217.391 113.859 216.422 113.562 215.766 113.188L214.125 97.3906C211.906 96.7656 208.359 96.4531 203.484 96.4531C202.422 96.4531 201.641 96.4688 201.141 96.5C199.797 100.812 199.047 106.609 198.891 113.891V115.719C198.891 120.375 199.188 124.484 199.781 128.047C200.188 130.391 200.531 132.188 200.812 133.438C201.125 134.688 201.5 135.656 201.938 136.344C202.406 137 202.984 137.328 203.672 137.328C206.109 137.328 208.281 136.484 210.188 134.797C212.125 133.109 213.781 130.953 215.156 128.328L213.891 121.625C217.984 120.25 222.031 119.547 226.031 119.516C227.969 119.516 229.656 119.734 231.094 120.172C232.531 120.609 233.5 121.469 234 122.75C233.406 127.375 232.453 133.047 231.141 139.766C229.828 146.484 228.844 150.562 228.188 152C226.188 152.625 224.25 152.938 222.375 152.938C221.406 152.938 220.375 152.859 219.281 152.703C218.219 152.547 217.281 152.312 216.469 152C216.469 150.969 216.375 148.516 216.188 144.641L216.047 141.172L214.781 140.797C212.625 144.422 210.203 147.359 207.516 149.609C204.828 151.828 201.906 152.938 198.75 152.938C194.688 152.938 191.172 151.438 188.203 148.438C185.234 145.438 182.953 141.172 181.359 135.641C179.766 130.078 178.969 123.594 178.969 116.188Z" fill="white"/>
<path d="M56.0391 221.023C57.9609 222.211 59.7266 223.055 61.3359 223.555C62.9609 224.039 64.4141 224.281 65.6953 224.281C66.5234 224.281 67.1875 224.125 67.6875 223.812C67.8906 223.516 68.0391 223.141 68.1328 222.688C68.2422 222.234 68.3047 221.758 68.3203 221.258C68.3203 220.758 68.2969 220.344 68.25 220.016C67.9531 219.547 67.3828 219.031 66.5391 218.469C65.7109 217.906 64.7031 217.344 63.5156 216.781C63.0312 217.172 62.4844 217.508 61.875 217.789C61.2812 218.07 60.6875 218.273 60.0938 218.398C59.5781 218.227 59.0859 217.922 58.6172 217.484C58.1484 217.031 57.7656 216.484 57.4688 215.844C57.1875 215.203 57.0469 214.547 57.0469 213.875C57.0469 213.078 57.2734 212.32 57.7266 211.602C58.1797 210.883 58.8828 210.258 59.8359 209.727C60.2266 209.727 60.7188 209.82 61.3125 210.008C61.9062 210.195 62.4609 210.461 62.9766 210.805L63.8672 205.508L54.9141 207.031C54.3203 206.359 53.8438 205.672 53.4844 204.969C53.1406 204.25 52.9688 203.367 52.9688 202.32C52.9688 201.102 53.2031 200.031 53.6719 199.109C54.1406 198.188 54.7734 197.477 55.5703 196.977C56.3828 196.477 57.2891 196.227 58.2891 196.227C59.6172 196.227 61.0312 196.523 62.5312 197.117C64.0312 197.695 65.4219 198.43 66.7031 199.32C67.0938 198.898 67.6953 198.453 68.5078 197.984C69.3203 197.5 70.1953 197.094 71.1328 196.766C72.0703 196.438 72.9141 196.258 73.6641 196.227C74.6172 196.633 75.3594 197.43 75.8906 198.617C76.4219 199.805 76.6875 201.156 76.6875 202.672C76.6875 203.812 76.5312 204.852 76.2188 205.789C75.6719 206.148 74.875 206.328 73.8281 206.328C73.1875 206.328 72.4844 206.273 71.7188 206.164C71.2812 206.914 70.6719 207.828 69.8906 208.906C69.125 209.984 68.25 211.094 67.2656 212.234C67.4062 212.219 67.625 212.211 67.9219 212.211C69.4688 212.211 70.9375 212.531 72.3281 213.172C73.7344 213.797 74.8594 214.672 75.7031 215.797C76.5469 216.906 76.9531 218.156 76.9219 219.547C76.8594 221.938 76.1875 224.023 74.9062 225.805C73.625 227.602 71.9375 228.977 69.8438 229.93C67.7656 230.898 65.5078 231.383 63.0703 231.383C60.6484 231.383 58.4609 230.984 56.5078 230.188C54.5547 229.391 53.3672 227.93 52.9453 225.805C53.2578 224.789 53.6797 223.844 54.2109 222.969C54.7422 222.094 55.3516 221.445 56.0391 221.023ZM93.7031 196.227C98.0781 196.227 101.281 197.422 103.312 199.812C105.344 202.188 106.359 205.547 106.359 209.891C106.359 212.75 105.867 215.273 104.883 217.461C103.914 219.648 102.438 221.367 100.453 222.617C98.4844 223.852 96.0703 224.469 93.2109 224.469C90.3828 224.469 88.0312 223.906 86.1562 222.781C84.2812 221.656 82.8906 220.078 81.9844 218.047C81.0781 216 80.625 213.594 80.625 210.828C80.625 207.922 81.0859 205.383 82.0078 203.211C82.9297 201.023 84.3672 199.312 86.3203 198.078C88.2734 196.844 90.7344 196.227 93.7031 196.227ZM94.3359 217.836C95.3516 217.836 95.9453 217.773 96.1172 217.648C96.4766 217.023 96.75 216.117 96.9375 214.93C97.1406 213.727 97.2422 212.438 97.2422 211.062C97.2422 209.797 97.1562 208.602 96.9844 207.477C96.8281 206.352 96.6094 205.484 96.3281 204.875C96.1562 204.688 95.7266 204.539 95.0391 204.43C94.3672 204.32 93.7266 204.266 93.1172 204.266C92.6797 204.266 92.2422 204.289 91.8047 204.336C91.3828 204.383 91.1094 204.445 90.9844 204.523C90.2031 205.805 89.8125 207.734 89.8125 210.312C89.8125 211.516 89.8984 212.734 90.0703 213.969C90.2422 215.203 90.4609 216.289 90.7266 217.227C90.9141 217.43 91.3594 217.586 92.0625 217.695C92.7812 217.789 93.5391 217.836 94.3359 217.836ZM123.375 196.227C127.75 196.227 130.953 197.422 132.984 199.812C135.016 202.188 136.031 205.547 136.031 209.891C136.031 212.75 135.539 215.273 134.555 217.461C133.586 219.648 132.109 221.367 130.125 222.617C128.156 223.852 125.742 224.469 122.883 224.469C120.055 224.469 117.703 223.906 115.828 222.781C113.953 221.656 112.562 220.078 111.656 218.047C110.75 216 110.297 213.594 110.297 210.828C110.297 207.922 110.758 205.383 111.68 203.211C112.602 201.023 114.039 199.312 115.992 198.078C117.945 196.844 120.406 196.227 123.375 196.227ZM124.008 217.836C125.023 217.836 125.617 217.773 125.789 217.648C126.148 217.023 126.422 216.117 126.609 214.93C126.812 213.727 126.914 212.438 126.914 211.062C126.914 209.797 126.828 208.602 126.656 207.477C126.5 206.352 126.281 205.484 126 204.875C125.828 204.688 125.398 204.539 124.711 204.43C124.039 204.32 123.398 204.266 122.789 204.266C122.352 204.266 121.914 204.289 121.477 204.336C121.055 204.383 120.781 204.445 120.656 204.523C119.875 205.805 119.484 207.734 119.484 210.312C119.484 211.516 119.57 212.734 119.742 213.969C119.914 215.203 120.133 216.289 120.398 217.227C120.586 217.43 121.031 217.586 121.734 217.695C122.453 217.789 123.211 217.836 124.008 217.836ZM140.344 211.719C140.344 211.016 140.422 210.359 140.578 209.75C140.734 209.125 140.969 208.492 141.281 207.852L158.93 206.797C159.164 207.453 159.281 208.234 159.281 209.141C159.281 210.719 158.898 212.461 158.133 214.367C156.211 214.43 154.062 214.461 151.688 214.461C147.859 214.461 144.172 214.359 140.625 214.156C140.438 213.266 140.344 212.453 140.344 211.719ZM166.102 221.023C168.023 222.211 169.789 223.055 171.398 223.555C173.023 224.039 174.477 224.281 175.758 224.281C176.586 224.281 177.25 224.125 177.75 223.812C177.953 223.516 178.102 223.141 178.195 222.688C178.305 222.234 178.367 221.758 178.383 221.258C178.383 220.758 178.359 220.344 178.312 220.016C178.016 219.547 177.445 219.031 176.602 218.469C175.773 217.906 174.766 217.344 173.578 216.781C173.094 217.172 172.547 217.508 171.938 217.789C171.344 218.07 170.75 218.273 170.156 218.398C169.641 218.227 169.148 217.922 168.68 217.484C168.211 217.031 167.828 216.484 167.531 215.844C167.25 215.203 167.109 214.547 167.109 213.875C167.109 213.078 167.336 212.32 167.789 211.602C168.242 210.883 168.945 210.258 169.898 209.727C170.289 209.727 170.781 209.82 171.375 210.008C171.969 210.195 172.523 210.461 173.039 210.805L173.93 205.508L164.977 207.031C164.383 206.359 163.906 205.672 163.547 204.969C163.203 204.25 163.031 203.367 163.031 202.32C163.031 201.102 163.266 200.031 163.734 199.109C164.203 198.188 164.836 197.477 165.633 196.977C166.445 196.477 167.352 196.227 168.352 196.227C169.68 196.227 171.094 196.523 172.594 197.117C174.094 197.695 175.484 198.43 176.766 199.32C177.156 198.898 177.758 198.453 178.57 197.984C179.383 197.5 180.258 197.094 181.195 196.766C182.133 196.438 182.977 196.258 183.727 196.227C184.68 196.633 185.422 197.43 185.953 198.617C186.484 199.805 186.75 201.156 186.75 202.672C186.75 203.812 186.594 204.852 186.281 205.789C185.734 206.148 184.938 206.328 183.891 206.328C183.25 206.328 182.547 206.273 181.781 206.164C181.344 206.914 180.734 207.828 179.953 208.906C179.188 209.984 178.312 211.094 177.328 212.234C177.469 212.219 177.688 212.211 177.984 212.211C179.531 212.211 181 212.531 182.391 213.172C183.797 213.797 184.922 214.672 185.766 215.797C186.609 216.906 187.016 218.156 186.984 219.547C186.922 221.938 186.25 224.023 184.969 225.805C183.688 227.602 182 228.977 179.906 229.93C177.828 230.898 175.57 231.383 173.133 231.383C170.711 231.383 168.523 230.984 166.57 230.188C164.617 229.391 163.43 227.93 163.008 225.805C163.32 224.789 163.742 223.844 164.273 222.969C164.805 222.094 165.414 221.445 166.102 221.023ZM203.766 196.227C208.141 196.227 211.344 197.422 213.375 199.812C215.406 202.188 216.422 205.547 216.422 209.891C216.422 212.75 215.93 215.273 214.945 217.461C213.977 219.648 212.5 221.367 210.516 222.617C208.547 223.852 206.133 224.469 203.273 224.469C200.445 224.469 198.094 223.906 196.219 222.781C194.344 221.656 192.953 220.078 192.047 218.047C191.141 216 190.688 213.594 190.688 210.828C190.688 207.922 191.148 205.383 192.07 203.211C192.992 201.023 194.43 199.312 196.383 198.078C198.336 196.844 200.797 196.227 203.766 196.227ZM204.398 217.836C205.414 217.836 206.008 217.773 206.18 217.648C206.539 217.023 206.812 216.117 207 214.93C207.203 213.727 207.305 212.438 207.305 211.062C207.305 209.797 207.219 208.602 207.047 207.477C206.891 206.352 206.672 205.484 206.391 204.875C206.219 204.688 205.789 204.539 205.102 204.43C204.43 204.32 203.789 204.266 203.18 204.266C202.742 204.266 202.305 204.289 201.867 204.336C201.445 204.383 201.172 204.445 201.047 204.523C200.266 205.805 199.875 207.734 199.875 210.312C199.875 211.516 199.961 212.734 200.133 213.969C200.305 215.203 200.523 216.289 200.789 217.227C200.977 217.43 201.422 217.586 202.125 217.695C202.844 217.789 203.602 217.836 204.398 217.836ZM233.438 196.227C237.812 196.227 241.016 197.422 243.047 199.812C245.078 202.188 246.094 205.547 246.094 209.891C246.094 212.75 245.602 215.273 244.617 217.461C243.648 219.648 242.172 221.367 240.188 222.617C238.219 223.852 235.805 224.469 232.945 224.469C230.117 224.469 227.766 223.906 225.891 222.781C224.016 221.656 222.625 220.078 221.719 218.047C220.812 216 220.359 213.594 220.359 210.828C220.359 207.922 220.82 205.383 221.742 203.211C222.664 201.023 224.102 199.312 226.055 198.078C228.008 196.844 230.469 196.227 233.438 196.227ZM234.07 217.836C235.086 217.836 235.68 217.773 235.852 217.648C236.211 217.023 236.484 216.117 236.672 214.93C236.875 213.727 236.977 212.438 236.977 211.062C236.977 209.797 236.891 208.602 236.719 207.477C236.562 206.352 236.344 205.484 236.062 204.875C235.891 204.688 235.461 204.539 234.773 204.43C234.102 204.32 233.461 204.266 232.852 204.266C232.414 204.266 231.977 204.289 231.539 204.336C231.117 204.383 230.844 204.445 230.719 204.523C229.938 205.805 229.547 207.734 229.547 210.312C229.547 211.516 229.633 212.734 229.805 213.969C229.977 215.203 230.195 216.289 230.461 217.227C230.648 217.43 231.094 217.586 231.797 217.695C232.516 217.789 233.273 217.836 234.07 217.836Z" fill="white"/>
</svg>
